<?xml version="1.0" standalone="no"?>
<!DOCTYPE svg PUBLIC "-//W3C//DTD SVG 20010904//EN"
 "http://www.w3.org/TR/2001/REC-SVG-20010904/DTD/svg10.dtd">
<svg version="1.0" xmlns="http://www.w3.org/2000/svg"
 width="700.000000pt" height="700.000000pt" viewBox="0 0 700.000000 700.000000"
 preserveAspectRatio="xMidYMid meet">
<metadata>
Created by potrace 1.14, written by Peter Selinger 2001-2017
</metadata>
<g transform="translate(0.000000,700.000000) scale(0.100000,-0.100000)"
fill="#000000" stroke="none">
<path d="M2576 6393 c2 -8 -7 -13 -26 -13 -16 0 -32 -5 -35 -11 -4 -6 -14 -7
-24 -4 -9 4 -36 8 -61 10 -121 11 -164 16 -168 20 -3 2 -18 -3 -34 -11 -27
-14 -29 -19 -23 -47 11 -47 9 -80 -7 -91 -22 -16 -35 -66 -32 -116 5 -75 12
-90 44 -97 17 -3 32 -8 34 -12 2 -3 -16 -20 -40 -36 -24 -17 -44 -35 -44 -40
0 -6 -20 -22 -45 -37 -25 -15 -45 -33 -45 -41 0 -7 -8 -18 -17 -25 -14 -10
-18 -25 -16 -62 2 -52 44 -157 66 -166 8 -3 14 -10 15 -17 10 -70 10 -76 -9
-82 -10 -4 -19 -10 -19 -15 0 -4 -10 -10 -22 -14 -18 -5 -20 -8 -9 -15 11 -7
11 -10 0 -17 -8 -5 -22 -10 -33 -11 -10 -2 -34 -19 -53 -38 -18 -18 -43 -37
-53 -40 -21 -7 -17 -35 5 -35 28 0 25 -21 -4 -38 -17 -9 -31 -21 -31 -26 0 -5
-20 -26 -45 -48 -25 -22 -45 -44 -45 -49 0 -11 -77 -86 -102 -100 -10 -5 -17
-13 -17 -17 3 -19 -4 -31 -46 -76 -25 -26 -43 -51 -41 -55 3 -4 -10 -32 -29
-62 -19 -30 -35 -57 -35 -61 0 -3 -28 -52 -62 -108 -35 -56 -69 -113 -77 -128
-8 -14 -22 -35 -32 -46 -11 -11 -22 -29 -25 -40 -4 -12 -13 -28 -21 -37 -7 -9
-16 -29 -19 -45 -3 -16 -18 -50 -35 -75 -16 -25 -29 -55 -29 -67 0 -11 -4 -23
-9 -26 -4 -3 -12 -29 -16 -58 -10 -62 -6 -51 -33 -111 -12 -27 -22 -54 -23
-60 0 -7 -8 -37 -18 -67 -15 -45 -16 -58 -6 -73 13 -19 9 -54 -14 -112 -12
-28 -10 -67 5 -180 3 -22 0 -53 -6 -70 -20 -51 -20 -66 0 -87 17 -18 19 -56 4
-80 -3 -5 -1 -23 5 -41 6 -17 13 -45 15 -61 3 -16 10 -32 16 -36 6 -4 8 -13 6
-21 -3 -8 -7 -40 -10 -71 -2 -31 -7 -61 -10 -66 -3 -6 1 -13 10 -16 9 -4 14
-9 10 -13 -3 -3 2 -12 13 -19 16 -11 18 -26 16 -108 -2 -82 0 -98 16 -112 10
-9 16 -20 14 -24 -3 -5 0 -21 6 -37 6 -15 11 -40 11 -56 0 -15 4 -27 9 -27 5
0 9 -6 9 -14 0 -8 6 -21 13 -28 7 -7 13 -43 14 -81 1 -43 8 -78 17 -92 9 -14
17 -51 18 -85 2 -33 5 -60 8 -60 8 0 75 -59 76 -67 0 -5 4 -24 8 -43 4 -19 8
-42 10 -50 1 -8 14 -37 28 -65 14 -28 24 -61 22 -76 -3 -17 7 -41 31 -75 25
-35 35 -60 35 -86 0 -20 5 -40 10 -43 6 -4 8 -10 5 -15 -3 -5 3 -17 13 -27 10
-10 26 -37 37 -60 10 -25 25 -43 34 -43 29 -1 64 -27 68 -51 6 -36 51 -99 72
-99 10 0 26 -9 36 -20 10 -11 15 -20 10 -20 -4 0 4 -9 18 -20 14 -11 29 -20
34 -20 5 0 39 -32 77 -70 37 -38 71 -70 76 -70 20 0 17 -34 -6 -70 -14 -21
-23 -43 -21 -48 3 -4 -13 -20 -36 -35 -22 -15 -38 -27 -34 -27 4 0 0 -14 -8
-30 -20 -39 -14 -48 30 -45 44 3 52 -8 23 -34 -26 -25 -28 -25 -56 -5 -12 8
-22 11 -22 5 0 -6 -6 -8 -12 -6 -7 3 -28 -8 -46 -23 -35 -29 -52 -80 -30 -93
10 -7 11 -12 0 -29 -18 -29 14 -57 75 -66 26 -3 57 -9 68 -11 36 -8 89 -13
180 -17 91 -5 159 -12 205 -21 14 -3 63 -8 110 -11 85 -4 135 -10 135 -13 0
-3 35 -10 63 -13 12 -1 22 -5 22 -9 0 -3 17 -6 38 -7 20 0 48 -4 62 -8 14 -4
45 -8 70 -10 25 -1 59 -8 75 -15 17 -6 44 -13 60 -15 17 -1 55 -6 85 -10 30
-4 69 -9 85 -11 44 -5 175 -16 208 -16 15 -1 27 -5 27 -9 0 -4 3 -7 8 -6 18 5
92 -13 87 -22 -3 -5 1 -7 9 -4 8 3 25 -4 37 -15 13 -12 29 -22 36 -22 21 -2
27 -4 38 -10 6 -4 20 -5 33 -4 12 1 22 -2 22 -6 0 -4 9 -5 20 -2 11 3 17 9 14
14 -8 14 22 11 34 -4 6 -7 27 -12 46 -11 20 1 36 -1 36 -5 0 -4 19 -8 42 -10
22 -1 51 -7 62 -13 33 -18 137 -27 166 -14 12 5 65 2 65 -4 0 -1 16 -3 35 -5
84 -9 130 -22 130 -37 0 -7 4 -7 13 0 23 19 123 20 111 1 -4 -8 0 -8 15 0 15
8 21 9 21 1 0 -6 5 -8 10 -5 6 3 10 2 10 -4 0 -5 -6 -12 -12 -14 -10 -4 -10
-6 -1 -6 6 -1 15 4 18 9 7 12 98 14 109 2 4 -4 33 -8 64 -9 31 0 62 -3 67 -4
6 -2 39 1 75 6 91 12 93 12 113 2 12 -5 23 -4 32 3 7 6 25 9 39 6 14 -3 28 -1
31 4 3 4 14 6 24 3 10 -3 40 4 65 16 25 11 46 18 46 15 0 -3 23 18 51 46 28
28 53 49 56 46 9 -9 45 32 38 43 -3 6 -2 11 4 11 6 0 8 7 5 15 -4 8 -1 15 6
15 6 0 9 4 5 9 -3 5 4 13 16 16 11 4 18 9 15 12 -3 3 7 17 22 31 15 13 21 21
14 17 -11 -6 -11 -3 -1 13 7 12 17 18 21 16 7 -5 12 10 9 28 0 4 5 5 13 2 17
-7 24 22 15 61 -4 17 -7 24 -8 16 -1 -8 -8 -5 -21 10 -10 13 -19 21 -20 17 0
-4 -9 0 -20 10 -12 9 -23 16 -25 14 -3 -1 -19 5 -35 13 -17 9 -35 13 -40 10
-6 -3 -10 0 -10 7 0 11 -2 10 -9 0 -6 -10 -10 -8 -14 9 -7 25 8 49 29 49 7 0
18 9 24 20 6 11 17 20 25 20 11 0 15 12 15 40 0 22 4 40 10 40 5 0 7 7 4 15
-10 26 16 47 48 39 31 -6 57 15 58 47 0 9 11 24 25 33 14 9 24 20 24 24 -1 4
-1 9 1 12 2 6 8 42 14 83 5 31 31 56 59 57 11 0 20 10 24 30 3 16 10 30 16 30
6 0 7 3 4 6 -8 8 33 84 44 84 26 0 99 98 99 133 0 14 7 32 15 41 8 8 15 19 15
25 0 5 8 14 17 19 10 6 16 22 16 42 0 24 10 43 38 72 33 35 39 48 44 100 3 33
11 74 19 92 7 17 21 47 29 66 8 19 16 58 18 85 1 28 8 65 16 84 7 18 13 41 13
51 0 9 10 28 21 41 24 27 49 80 49 105 0 9 9 25 21 35 22 19 22 28 3 254 -3
28 -4 57 -4 65 5 109 4 361 -1 382 -4 15 -3 30 2 33 5 4 2 20 -8 38 -9 18 -20
48 -24 67 -4 19 -11 46 -15 59 -6 19 -4 22 7 16 7 -5 4 4 -9 19 -12 16 -22 36
-22 45 0 20 -38 155 -56 201 -8 19 -16 63 -17 97 -2 46 -9 71 -25 93 -12 16
-25 51 -29 77 -3 27 -9 53 -13 58 -3 6 -15 33 -25 60 -10 28 -36 75 -57 105
-21 30 -41 73 -45 95 -3 22 -14 48 -23 58 -10 10 -26 35 -36 55 -11 20 -24 42
-31 47 -6 6 -21 30 -33 55 -12 25 -28 57 -36 71 -7 14 -11 28 -8 31 2 3 -6 12
-19 21 -13 9 -34 36 -45 61 -12 24 -35 60 -50 78 -16 18 -33 44 -37 57 -4 14
-36 54 -71 89 -35 35 -73 78 -83 96 -11 17 -29 37 -40 44 -12 7 -21 17 -21 23
0 6 -9 18 -21 28 -11 9 -22 29 -22 44 -1 15 -5 27 -10 27 -4 0 -13 12 -20 28
-6 15 -22 35 -34 45 -13 10 -23 27 -23 38 0 17 -10 23 -32 21 -3 -1 -12 5 -18
13 -15 18 2 45 27 45 28 0 6 25 -43 49 -44 22 -46 25 -24 28 51 8 57 14 27 30
-18 9 -26 20 -23 29 3 7 -1 20 -8 26 -12 11 -11 19 5 50 24 48 24 48 -11 48
-48 0 -56 30 -25 97 31 68 27 119 -11 133 -31 12 -95 70 -89 81 3 4 -4 10 -15
14 -11 3 -19 9 -19 13 6 38 -3 71 -21 77 -11 3 -20 13 -20 21 0 9 -15 48 -34
87 -46 98 -49 107 -47 150 2 32 -1 39 -18 44 -12 3 -21 10 -21 15 0 17 -147
-9 -195 -34 -22 -12 -36 -13 -48 -6 -10 5 -25 7 -34 4 -9 -4 -26 0 -39 9 -14
9 -34 13 -48 9 -13 -3 -27 -1 -31 5 -3 6 -11 9 -16 6 -5 -4 -17 -8 -26 -10
-10 -2 -22 -4 -28 -6 -5 -2 -20 0 -33 5 -15 5 -27 2 -38 -8 -8 -9 -24 -16 -35
-16 -11 0 -22 -6 -25 -14 -10 -25 -61 -27 -109 -4 -25 12 -45 25 -45 29 0 4
-13 10 -30 14 -16 4 -30 12 -30 18 0 13 -14 15 -101 20 -31 1 -63 7 -70 14 -8
6 -45 10 -84 8 -38 -1 -75 3 -82 8 -7 5 -19 5 -30 -1 -12 -7 -25 -6 -45 4 -17
9 -29 10 -33 4 -3 -6 -21 -10 -39 -10 -18 0 -43 -9 -55 -19 -12 -10 -30 -17
-40 -14 -10 3 -22 0 -25 -6 -4 -6 -15 -7 -30 -1 -13 4 -62 8 -109 7 -48 0 -90
2 -93 6 -12 12 -42 8 -47 -5 -3 -10 -7 -10 -17 -1 -7 6 -19 9 -27 6 -7 -3 -22
2 -32 11 -14 12 -24 14 -43 7 -13 -5 -31 -5 -39 -1 -29 17 -103 21 -129 7 -21
-11 -30 -10 -62 5 -20 10 -38 21 -40 25 -3 5 -3 2 -2 -4z"/>
<path d="M1780 1020 c0 -5 7 -7 15 -4 8 4 15 8 15 10 0 2 -7 4 -15 4 -8 0 -15
-4 -15 -10z"/>
<path d="M4636 308 c3 -5 10 -6 15 -3 13 9 11 12 -6 12 -8 0 -12 -4 -9 -9z"/>
</g>
</svg>
